<svg id="Layer_1" data-name="Layer 1" xmlns="http://www.w3.org/2000/svg" viewBox="0 0 507.504 552.936"><defs><style>.cls-1{fill:#e0e1e2;}.cls-2{fill:#bcbec0;}.cls-3{fill:#757679;}.cls-4{fill:#dadbdc;}.cls-5{fill:#a7a9ac;}.cls-6{fill:#e4e5e6;}.cls-7{fill:#dcddde;}.cls-8{fill:#e6e7e8;}.cls-9{fill:#f1f2f2;}.cls-10{fill:#939598;}.cls-11{fill:#414042;}.cls-12{fill:#6d6e71;}.cls-13{fill:#77787b;}.cls-14{fill:#c4c6c8;}.cls-15,.cls-19{fill:#fff;}.cls-16{fill:#1a1a1a;}.cls-17{fill:#efeff0;}.cls-18{fill:#231f20;}.cls-19{opacity:0.55;}.cls-20{fill:#d1d3d4;}.cls-21{fill:#8c8e90;}.cls-22{fill:#808285;}.cls-23{fill:#797a7d;}.cls-24{fill:#8d9092;}.cls-25{fill:#4d4d4f;}.cls-26{fill:#5c5d60;}.cls-27{fill:#a1a3a6;}.cls-28{fill:#7b7c7f;}.cls-29{fill:#58595b;}.cls-30{fill:#8a8c8e;}</style></defs><polygon class="cls-1" points="260.51 90.3 234.22 103.269 252.416 103.269 300.205 116.608 260.51 90.3"/><polygon class="cls-1" points="101.957 414.357 232.479 432.111 243.46 487.412 101.957 414.357"/><polygon class="cls-2" points="212.023 230.206 192.703 247.379 303.232 257.594 212.023 230.206"/><polygon class="cls-3" points="272.048 508.891 281.658 505.972 284.836 507.431 326.664 507.431 326.664 543.315 284.836 551.936 272.048 508.891"/><polygon class="cls-4" points="115.709 474.212 221.734 489.626 209.465 502.403 115.709 474.212"/><polygon class="cls-5" points="221.734 489.626 271.602 509.76 284.836 551.936 209.465 502.403 221.734 489.626"/><path class="cls-2" d="M396.7157,371.021c.4815-.0945,100.6184.3757,100.6184.3757l-22.4094,28.12Z" transform="translate(-171.4449 -148.7289)"/><polygon class="cls-2" points="155.58 226.933 152.194 242.629 189.265 248.112 155.58 226.933"/><polygon class="cls-2" points="120.043 204.089 155.58 226.933 158.921 214.383 120.043 204.089"/><polygon class="cls-6" points="159.427 215.592 156.913 226.542 190.014 246.997 210.227 230.43 159.427 215.592"/><polygon class="cls-7" points="417.558 103.269 482.499 168.209 482.499 375.734 439.312 497.192 366.942 551.936 325.889 551.936 325.889 442.179 343.72 442.282 396.995 424.041 366.942 411.229 325.889 403.865 325.889 103.269 417.558 103.269"/><polygon class="cls-8" points="418.994 443.984 418.994 432.849 396.995 424.041 344.699 442.282 407.339 487.412 418.994 443.984"/><polygon class="cls-5" points="494.406 246.72 499.584 242.63 503.544 242.63 507.504 266.385 507.504 340.193 490.344 375.734 482.499 375.734 482.499 247.986 494.406 246.72"/><polygon class="cls-5" points="329.679 379.162 362.735 366.046 339.507 347.665 329.679 379.162"/><polygon class="cls-9" points="325.889 222.668 348.298 250.788 339.507 335.758 325.889 222.668"/><polygon class="cls-2" points="339.507 347.665 372.174 353.823 372.174 369.533 362.735 366.046 339.507 347.665"/><polygon class="cls-8" points="372.174 353.823 342.296 303.855 339.507 347.665 372.174 353.823"/><polygon class="cls-10" points="372.174 369.533 363.481 379.162 340.302 374.947 362.735 366.046 372.174 369.533"/><polygon class="cls-11" points="354.83 243.891 375.285 222.292 430.045 222.292 459.849 246.72 427.687 238.247 374.484 238.247 354.83 243.891"/><polygon class="cls-12" points="325.889 403.865 325.889 393.473 341.647 382.62 384.396 398.961 413.747 418.05 396.995 424.041 366.942 411.229 325.889 403.865"/><polygon class="cls-13" points="325.889 403.865 384.396 398.961 341.647 382.62 325.889 393.473 325.889 403.865"/><polygon class="cls-12" points="366.942 411.229 413.747 418.05 396.995 424.041 366.942 411.229"/><polygon class="cls-12" points="413.747 418.05 418.994 432.849 396.995 424.041 413.747 418.05"/><polygon class="cls-11" points="354.83 243.891 430.045 222.292 375.285 222.292 354.83 243.891"/><polygon class="cls-14" points="348.298 250.788 375.285 222.292 325.889 222.668 348.298 250.788"/><polygon class="cls-15" points="329.679 379.162 339.507 347.665 339.507 335.758 325.889 224.914 312.271 335.758 312.271 347.665 322.099 379.162 329.679 379.162"/><polygon class="cls-14" points="329.679 379.162 339.507 347.665 312.271 347.665 322.099 379.162 329.679 379.162"/><polygon class="cls-5" points="322.099 379.162 289.043 366.046 312.271 347.665 322.099 379.162"/><polygon class="cls-12" points="325.889 448.179 362.735 454.667 354.829 472.238 337.094 481.656 337.094 497.192 366.942 507.294 407.339 487.412 418.994 443.984 482.499 375.734 439.312 497.192 366.942 551.936 325.889 551.936 325.889 448.179"/><polygon class="cls-16" points="476.79 98.328 423.653 39.999 413.242 15.507 357.389 6.321 260.51 90.3 302.075 116.608 349.703 116.608 399.697 103.269 417.558 103.269 482.499 168.209 482.499 349.669 494.406 310.333 494.406 143.52 476.79 98.328"/><polygon class="cls-12" points="391.269 11.893 357.389 6.321 260.51 90.3 302.075 116.608 349.703 116.608 391.269 105.518 391.269 90.3 391.269 11.893"/><polygon class="cls-12" points="482.499 349.669 441.907 419.36 482.499 375.734 482.499 349.669"/><polygon class="cls-17" points="276.493 222.292 302.075 116.608 349.703 116.608 375.285 222.292 276.493 222.292"/><polygon class="cls-2" points="430.045 222.292 482.499 168.209 482.499 349.669 441.907 419.36 462.9 307.607 459.848 246.72 430.045 222.292"/><path class="cls-15" d="M517.353,421.0005l9.9326,45.0862L557.5979,486.4H601.49l32.8557-30.0638,12.9287-41.0329h11.3473V395.4488h-27.328l-32.1619-8.4729H560.536L519.0719,405.55Zm6.3464-8.6945,38.1619-20.9475h38.7842l30.6479,19.3265v40.0821L600.4381,481.993H558.75l-27.9991-19.4958-7.0517-36.5027Z" transform="translate(-171.4449 -148.7289)"/><polygon class="cls-15" points="304.151 256.821 322.511 253.673 329.08 253.673 347.627 256.821 345.908 272.272 330.356 263.663 321.498 263.663 305.87 272.272 304.151 256.821"/><polygon class="cls-18" points="349.703 116.608 391.268 90.3 417.558 103.269 399.697 103.269 349.703 116.608"/><polygon class="cls-19" points="347.627 256.821 345.908 272.272 332.696 254.261 347.627 256.821"/><polygon class="cls-20" points="417.558 103.269 430.045 222.292 482.499 168.209 417.558 103.269"/><polygon class="cls-18" points="423.653 39.999 482.499 80.722 465.02 85.408 423.653 39.999"/><polygon class="cls-21" points="490.344 375.734 494.406 310.333 482.499 349.669 482.499 375.734 490.344 375.734"/><polygon class="cls-7" points="503.544 242.63 507.504 266.385 507.504 340.193 499.584 242.63 503.544 242.63"/><polygon class="cls-19" points="487.176 246.72 459.848 246.72 427.686 238.247 459.848 250.788 487.176 250.788 487.176 246.72"/><polygon class="cls-22" points="357.389 6.321 391.268 90.3 391.269 11.893 357.389 6.321"/><polygon class="cls-12" points="413.242 15.507 417.558 103.269 391.268 90.3 413.242 15.507"/><polygon class="cls-11" points="464.096 427.49 430.045 489.627 379.819 508.826 337.094 497.192 337.094 483.332 354.597 472.239 362.523 455.124 344.699 442.282 325.889 442.179 325.889 551.936 366.942 551.936 439.312 497.192 464.096 427.49"/><polygon class="cls-10" points="441.907 419.36 430.045 489.627 418.994 443.984 441.907 419.36"/><path class="cls-18" d="M468.6265,620.9677l28.7085,18.1958s31.9507-18.2814,28.7084-18.1958S468.6265,620.9677,468.6265,620.9677Z" transform="translate(-171.4449 -148.7289)"/><polygon class="cls-18" points="439.312 497.192 430.045 489.627 464.096 427.49 439.312 497.192"/><polygon class="cls-18" points="284.836 551.936 326.006 531.59 366.942 551.936 284.836 551.936"/><polygon class="cls-18" points="443.882 484.337 379.819 508.826 366.942 551.936 439.312 497.192 443.882 484.337"/><polyline class="cls-18" points="314.471 325.851 326.882 222.787 324.896 222.548 312.485 325.612"/><path class="cls-18" d="M467.3827,466.0868l-.4309.9024,16.9353,8.0853-.9751,17.7207-14.6492-27.1828-.88.4744-.4309.9024.4309-.9024-.88.4743,16.333,30.3077a1,1,0,0,0,1.8787-.42l1.207-21.9336a1.0024,1.0024,0,0,0-.5676-.9574l-17.54-8.374a1,1,0,0,0-1.3111,1.3768Z" transform="translate(-171.4449 -148.7289)"/><path class="cls-23" d="M483.7157,496.3944l-.2239-.9747-111.08,25.4873a1,1,0,0,0,.3044,1.9714l87.8525-7.1064a.9906.9906,0,0,0,.54-.2126l23.2276-18.3809a1,1,0,0,0-.8443-1.7588l.2239.9747-.6206-.7842-22.99,18.1928-73.8088,5.97,97.6431-22.4043-.2237-.9747-.6206-.7842Z" transform="translate(-171.4449 -148.7289)"/><path class="cls-24" d="M372.6356,521.8817l-.6887.7252L425.54,573.4946l.6887-.7252.3367-.9416-.5322-.19-.3367.9416.272.9622,70.6582-19.9854a1.0009,1.0009,0,0,0,.7277-.9622V542.202a1.0011,1.0011,0,0,0-.8378-.9868l-123.7188-20.32a1,1,0,0,0-.8506,1.712l.6887-.7252-.1621.9868,122.8806,20.1826v8.786l-69.93,19.78a1,1,0,0,0-.0647,1.9038l.5322.19a1,1,0,0,0,1.0254-1.6667l-53.5928-50.8877-.6885.7252-.1621.9868Z" transform="translate(-171.4449 -148.7289)"/><path class="cls-25" d="M474.9247,399.5165l.3291-.9443-76.1069-26.53,96.1169.347-21.1213,26.5039.7822.6233.3291-.9443-.3291.9443.782.6231,22.4092-28.12a1,1,0,0,0-.7786-1.6232l-104.1553-.3759a1,1,0,0,0-.3327,1.9442l81.7461,28.4956a.998.998,0,0,0,1.1113-.3211Z" transform="translate(-171.4449 -148.7289)"/><path class="cls-24" d="M415.2284,185.4549l-.6008-.7994-54.0361,40.6106L201.726,260.9524a1,1,0,0,0-.51,1.6607L322.91,392.0432a1,1,0,0,0,1.7034-.4612l17.0215-74.14,64.4443-64.4443h17.3145l49.8681,13.3056a1,1,0,0,0,.7925-1.8112L432.8,238.3809l-16.6174-53.224a1,1,0,0,0-1.5552-.5014l.6008.7994-.9546.2981L431,239.3272a1.0059,1.0059,0,0,0,.42.5469l36.04,22.8108-43.6767-11.6537-.2576-.0338h-17.86a1.0059,1.0059,0,0,0-.7072.2929l-64.94,64.94a1.0106,1.0106,0,0,0-.2675.4834l-16.6665,72.5933L203.8739,262.52,361.2394,227.17a1.0158,1.0158,0,0,0,.3816-.1763l54.208-40.74-.6006-.7994-.9546.2981Z" transform="translate(-171.4449 -148.7289)"/><path class="cls-26" d="M271.3349,562.2079l-.1455.9894,131.915,19.37a1.0113,1.0113,0,0,0,.5171-.0611l21.6513-8.6694L475.401,591.322l-60.5832,43.6486L271.7926,561.3188l-.4577.8891-.1455.9894.1455-.9894-.458.889,143.57,73.9326a.9994.9994,0,0,0,1.0424-.0777l62.64-45.13a1,1,0,0,0-.2551-1.7556l-52.2959-18.2412a1.0073,1.0073,0,0,0-.7012.0158l-21.7488,8.7083L271.48,561.2184a1,1,0,0,0-.6032,1.8785Z" transform="translate(-171.4449 -148.7289)"/><path class="cls-18" d="M475.5966,405.55l.28-.96L284.7851,348.7768a1,1,0,0,0-.8006,1.814l73.0967,44.5125-33.302-4.7351a1,1,0,0,0-1.0769,1.3415l35.6777,95.042a1,1,0,0,0,.9363.6485H437.07a.9925.9925,0,0,0,.5567-.1693l30.3125-20.3134a.9953.9953,0,0,0,.42-.6156l9.9326-45.0865a.9924.9924,0,0,0,.0171-.3256L476.59,405.44a.9985.9985,0,0,0-.7133-.8493l-.28.96-.9939.1105,1.7,15.2839-9.8108,44.5348L436.7658,485.4H360.0094l-34.8423-92.8146,36.4458,5.1821a1,1,0,0,0,.6609-1.8441L291.4874,352.818,475.3161,406.51l.2805-.96-.9939.1105Zm-4.628,20.4443-.9819-.19-6.9748,36.1036-27.05,18.8351L327.09,392.8589l142.8787,20.3149,0,12.8207h1l-.9819-.19.9819.19h1V412.306a1,1,0,0,0-.8591-.99l-147.33-20.9478a1,1,0,0,0-.7688,1.7681L435.29,482.7711a1.0011,1.0011,0,0,0,1.2.0426l27.999-19.4961a1.0043,1.0043,0,0,0,.41-.631l7.0517-36.5025.0181-.19Z" transform="translate(-171.4449 -148.7289)"/><path class="cls-18" d="M323.6386,391.3583l-.1409.99,38.1152,5.4194a1.0057,1.0057,0,0,0,.7747-.2166l31.4248-25.7569a1,1,0,0,0,.084-1.47l-52.4541-54.083a1.0019,1.0019,0,0,0-1.2219-.1675L171.9411,414.25a1,1,0,0,0,.06,1.76l168.2,83.2447,31.8409,23.4325a1,1,0,0,0,1.5288-1.1569L324.5746,391.0068l-.936.3515-.1409.99.1409-.99-.9363.3514,47.8132,127.37-29.1985-21.488-.1491-.0909-166.6143-82.46,165.9978-96.8449,51.1521,52.74-30.2441,24.7893-37.68-5.3576a1,1,0,0,0-1.0769,1.3415Z" transform="translate(-171.4449 -148.7289)"/><path class="cls-18" d="M473.5194,265.3368l.5347-.845L432.49,238.1842a1.0023,1.0023,0,0,0-.9773-.0519l-26.29,12.9683a1,1,0,0,0,.4426,1.8968h17.7286l49.8681,13.3056a1,1,0,0,0,.7925-1.8112l-.5347.845.2576-.9662-49.9941-13.3394-.2576-.0338H409.953l21.9407-10.8231,41.0908,26.0075.5349-.845.2576-.9662Z" transform="translate(-171.4449 -148.7289)"/><path class="cls-27" d="M405.6649,251.9974l-.4875-.8731L265.4645,329.1306a1,1,0,0,0,.66,1.8582l74.7724-13.0659a1.0062,1.0062,0,0,0,.5349-.278l64.94-64.94a1,1,0,0,0-1.1946-1.58l.4875.8731-.7072-.7071-64.7171,64.7168-68.6562,11.9972,134.5678-75.1338-.4873-.8731-.7072-.7071Z" transform="translate(-171.4449 -148.7289)"/><path class="cls-18" d="M361.02,226.1947l-.2192-.9757L201.726,260.9524a1,1,0,0,0,.2678,1.9745l203.72-9.9307a1,1,0,0,0,.4517-1.8646l-44.6445-25.8027a.9986.9986,0,0,0-.7195-.11l.2192.9757-.5.8658,41.7041,24.1034-188.7593,9.2014L361.2394,227.17l-.219-.9757-.5.8658Z" transform="translate(-171.4449 -148.7289)"/><path class="cls-28" d="M201.9452,554.4715l.3745.9272L339.724,499.88l0,23.7759L201.7338,553.4941l.2114.9774.3745.9272-.3745-.9272.2112.9774L340.9357,525.44a1,1,0,0,0,.7886-.9773V498.3973a1,1,0,0,0-1.3745-.9272L201.5705,553.5444a1,1,0,0,0,.5859,1.9045Z" transform="translate(-171.4449 -148.7289)"/><path class="cls-29" d="M319.6786,391.3583l-.1594-.9873L172.2858,414.1264a1,1,0,0,0-.4431,1.7854L263.77,485.2853a1,1,0,0,0,1.4461-.2613l59.2656-93.1289a1,1,0,0,0-.8435-1.5368h-3.96l-.1594.0127.1594.9873v1h2.1382l-57.7061,90.6781-89.1923-67.3089,144.9194-23.382-.1592-.9871v0Z" transform="translate(-171.4449 -148.7289)"/><path class="cls-18" d="M415.2284,185.4554l-.9546.298L431,239.3272a1,1,0,0,0,1.6094.4576l96.8789-83.9795a1,1,0,0,0-.9134-1.7216L414.97,184.4894a1,1,0,0,0-.6961,1.264l.9546-.298.2583.966,109.4107-29.2831-92.4432,80.1346-16.2714-52.1155-.9544.298.2583.966Z" transform="translate(-171.4449 -148.7289)"/><path class="cls-18" d="M538.3866,699.6649H456.58l-74.1157-48.7081,10.9761-11.4307,49.6064,18.9625a.9934.9934,0,0,0,.62.0308l42.7256-11.6338a1.0019,1.0019,0,0,0,.737-.9648V632.0614a.9956.9956,0,0,0-.4646-.8447L469.411,620.2808l-7.4577-16.0994,16.896-12.1726,18.49-.1008-.0108-2-18.81.1025a.9945.9945,0,0,0-.5791.1886L460.1144,603.041a.9985.9985,0,0,0-.3228,1.2317l7.9278,17.1152a1.0083,1.0083,0,0,0,.3721.4243l17.0378,10.799,0,12.5452-41.6733,11.3474-49.9207-19.0825a1.0007,1.0007,0,0,0-1.0783.2413L380.1886,650.439a1,1,0,0,0,.1721,1.5283l75.3711,49.5332a1,1,0,0,0,.5493.1643h82.1055v-2Z" transform="translate(-171.4449 -148.7289)"/><path class="cls-30" d="M380.91,651.1317l.7211.6926L393.9,639.048a1,1,0,0,0-.574-1.6818L276.5924,619.9785a1,1,0,0,0-.4248,1.95l104.4649,30.1641a1.0032,1.0032,0,0,0,.9987-.2681l-.7211-.6926.2773-.9607-90.0645-26.006,99.993,14.8941-10.9273,11.38.7215.6927.2773-.9607Z" transform="translate(-171.4449 -148.7289)"/><path class="cls-26" d="M393.1786,638.3553l-.3572.9341,49.7652,19.0232,11.9509,40.01-72.073-47.3657L393.9,639.048l-.7212-.6927-.3572.9341.3572-.9341-.7214-.6927L380.1886,650.439a1,1,0,0,0,.1721,1.5283l75.3711,49.5332a1,1,0,0,0,1.5074-1.1218l-12.877-43.11a1,1,0,0,0-.6011-.6478l-50.2256-19.1992a1.0007,1.0007,0,0,0-1.0783.2413Z" transform="translate(-171.4449 -148.7289)"/><path class="cls-18" d="M447.9384,371.0209l.9719.2352,25.3958-104.9193H520.361l25.0972,103.6841h-97.52v1l.9719.2352-.9719-.2352v1h98.791a1,1,0,0,0,.9719-1.2352L522.12,265.1015a1,1,0,0,0-.972-.7647H473.5194a.9993.9993,0,0,0-.9721.7647L446.9662,370.7856a1,1,0,0,0,.9722,1.2352Z" transform="translate(-171.4449 -148.7289)"/><path class="cls-18" d="M517.8375,420.1254l-15.5527-8.6084a1,1,0,0,0-.4841-.125h-8.8574a.9964.9964,0,0,0-.4827.124l-14.3169,7.8862-1.45-13.0257,17.3472-2.9749H500.44l18.4651,3.1344.3349-1.9717-18.5481-3.1485-.1672-.0141H493.956l-.1692.0144-18.3594,3.1484a1.0015,1.0015,0,0,0-.8247,1.0962l1.7187,15.45a1,1,0,0,0,1.4763.7653L493.2,413.3919h8.3416l15.3271,8.4833.9688-1.75Z" transform="translate(-171.4449 -148.7289)"/><path class="cls-18" d="M483.7157,497.3944H510.952a1,1,0,0,0,0-2H483.7157a1,1,0,0,0,0,2" transform="translate(-171.4449 -148.7289)"/><path class="cls-18" d="M482.7609,496.6923l9.2038,29.4967-31.1079-12.3432a1,1,0,1,0-.7373,1.859l33.0554,13.1161a1,1,0,0,0,1.3235-1.2273L484.67,496.0965a1,1,0,1,0-1.9092.5958Z" transform="translate(-171.4449 -148.7289)"/><path class="cls-18" d="M520.525,398.8932l-22.4091-28.12a1,1,0,0,0-1.5642,1.2464l22.4091,28.12a1,1,0,1,0,1.5642-1.2464" transform="translate(-171.4449 -148.7289)"/><path class="cls-18" d="M477.5448,591.0106l-.5847-.8114-62.64,45.13a1,1,0,0,0,.143,1.7085L454.86,656.9205a1.0056,1.0056,0,0,0,.4417.1027h82.1054a1.0073,1.0073,0,0,0,.4414-.1027l40.3975-19.8829a1,1,0,0,0,.1431-1.7085l-62.64-45.13a1.0041,1.0041,0,0,0-.5845-.1886h-37.62a1.003,1.003,0,0,0-.5847.1886l.5847.8114v1h37.2967l61.0275,43.9681-38.6945,19.0446h-81.64l-38.6936-19.0446,61.2888-44.1566-.5845-.8114v0Z" transform="translate(-171.4449 -148.7289)"/><polyline class="cls-18" points="168.802 374.855 99.412 412.601 100.368 414.357 169.757 376.612"/><path class="cls-18" d="M201.8344,555.4654l69.39,7.7363a1.0006,1.0006,0,0,0,.5886-.1154l68.7632-37.4045L402.3378,582.1l11.5893,54.25,1.9561-.4178-11.6555-54.5625a.9965.9965,0,0,0-.3035-.5294l-62.5254-57.1153a1.0011,1.0011,0,0,0-1.1523-.14L271.133,561.1791l-69.0772-7.7014-.2212,1.9877Z" transform="translate(-171.4449 -148.7289)"/><path class="cls-3" d="M415.2284,185.4554l.8613-.5078-17.9248-30.4058a1,1,0,0,0-.7678-.4878l-56.5791-5.3208a1,1,0,0,0-.5261,1.8973l74.5039,35.7266a1,1,0,0,0,1.2939-1.41l-.8613.5078.4324-.9017-69.4539-33.3048,50.4942,4.7485,17.6657,29.9658.8616-.5078.4324-.9017Z" transform="translate(-171.4449 -148.7289)"/></svg>