{
    "asset" : {
        "copyright" : "Felipe Rodrigues",
        "generator" : "Khronos glTF Blender I/O v1.5.17",
        "version" : "2.0"
    },
    "extensionsUsed" : [
        "KHR_texture_transform"
    ],
    "extensionsRequired" : [
        "KHR_texture_transform"
    ],
    "scene" : 0,
    "scenes" : [
        {
            "name" : "Scene",
            "nodes" : [
                0,
                1,
                2
            ]
        }
    ],
    "nodes" : [
        {
            "mesh" : 0,
            "name" : "Felipe Rodrigues_logo",
            "scale" : [
                7.2266457209479995e-06,
                7.226659818115877e-06,
                8.373403943551239e-06
            ],
            "translation" : [
                3.4867329597473145,
                3.3590283393859863,
                0.005905508995056152
            ]
        },
        {
            "name" : "Light",
            "rotation" : [
                0.16907575726509094,
                0.7558803558349609,
                -0.27217137813568115,
                0.570947527885437
            ],
            "scale" : [
                0.9554107785224915,
                0.22949528694152832,
                0.21205466985702515
            ],
            "translation" : [
                3.790689468383789,
                3.7856874465942383,
                -1.0054539442062378
            ]
        },
        {
            "name" : "Camera",
            "rotation" : [
                0.483536034822464,
                0.33687159419059753,
                -0.20870360732078552,
                0.7804827094078064
            ],
            "scale" : [
                0.7293626666069031,
                0.6168125867843628,
                0.3130769729614258
            ],
            "translation" : [
                4.027915000915527,
                3.717355489730835,
                6.925790786743164
            ]
        }
    ],
    "materials" : [
        {
            "doubleSided" : true,
            "name" : "Felipe Rodrigues_logo Front Inflation Material",
            "pbrMetallicRoughness" : {
                "baseColorFactor" : [
                    0.5,
                    0.5,
                    0.5,
                    1
                ],
                "baseColorTexture" : {
                    "extensions" : {
                        "KHR_texture_transform" : {
                            "offset" : [
                                0.29137933254241943,
                                0.0008491173502989113
                            ],
                            "scale" : [
                                0.41647136211395264,
                                0.9983019232749939
                            ]
                        }
                    },
                    "index" : 0
                },
                "metallicFactor" : 0.07999999821186066,
                "roughnessFactor" : 0.3333333432674408
            }
        },
        {
            "doubleSided" : true,
            "name" : "Felipe Rodrigues_logo Extrusion Material",
            "pbrMetallicRoughness" : {
                "baseColorFactor" : [
                    0.5,
                    0.5,
                    0.5,
                    1
                ],
                "baseColorTexture" : {
                    "index" : 1
                },
                "metallicFactor" : 0.07999999821186066,
                "roughnessFactor" : 0.3333333432674408
            }
        },
        {
            "doubleSided" : true,
            "name" : "Felipe Rodrigues_logo Back Inflation Material",
            "pbrMetallicRoughness" : {
                "baseColorFactor" : [
                    0.5,
                    0.5,
                    0.5,
                    1
                ],
                "baseColorTexture" : {
                    "extensions" : {
                        "KHR_texture_transform" : {
                            "offset" : [
                                0.29137933254241943,
                                0.0008491173502989113
                            ],
                            "scale" : [
                                0.41647136211395264,
                                0.9983019232749939
                            ]
                        }
                    },
                    "index" : 2
                },
                "metallicFactor" : 0.07999999821186066,
                "roughnessFactor" : 0.3333333432674408
            }
        }
    ],
    "meshes" : [
        {
            "name" : "Felipe Rodrigues_logo",
            "primitives" : [
                {
                    "attributes" : {
                        "POSITION" : 0,
                        "NORMAL" : 1,
                        "TEXCOORD_0" : 2
                    },
                    "indices" : 3,
                    "material" : 0
                },
                {
                    "attributes" : {
                        "POSITION" : 4,
                        "NORMAL" : 5,
                        "TEXCOORD_0" : 6
                    },
                    "indices" : 7,
                    "material" : 1
                },
                {
                    "attributes" : {
                        "POSITION" : 8,
                        "NORMAL" : 9,
                        "TEXCOORD_0" : 10
                    },
                    "indices" : 11,
                    "material" : 2
                }
            ]
        }
    ],
    "textures" : [
        {
            "sampler" : 0,
            "source" : 0
        },
        {
            "sampler" : 0,
            "source" : 1
        },
        {
            "sampler" : 0,
            "source" : 0
        }
    ],
    "images" : [
        {
            "bufferView" : 4,
            "mimeType" : "image/png",
            "name" : "Felipe_Rodrigues_logo.PNG"
        },
        {
            "bufferView" : 9,
            "mimeType" : "image/png",
            "name" : "Felipe_Rodrigues_logo_Extrusion_Material_-_Default_Texture.PNG"
        }
    ],
    "accessors" : [
        {
            "bufferView" : 0,
            "componentType" : 5126,
            "count" : 9820,
            "max" : [
                537151.3125,
                583433,
                111.912109375
            ],
            "min" : [
                -467263.65625,
                -510741.46875,
                -40889.09765625
            ],
            "type" : "VEC3"
        },
        {
            "bufferView" : 1,
            "componentType" : 5126,
            "count" : 9820,
            "type" : "VEC3"
        },
        {
            "bufferView" : 2,
            "componentType" : 5126,
            "count" : 9820,
            "type" : "VEC2"
        },
        {
            "bufferView" : 3,
            "componentType" : 5123,
            "count" : 10608,
            "type" : "SCALAR"
        },
        {
            "bufferView" : 5,
            "componentType" : 5126,
            "count" : 4845,
            "max" : [
                536963.375,
                583418.5625,
                148.76934814453125
            ],
            "min" : [
                -467914.53125,
                -510728.6875,
                -41044.0703125
            ],
            "type" : "VEC3"
        },
        {
            "bufferView" : 6,
            "componentType" : 5126,
            "count" : 4845,
            "type" : "VEC3"
        },
        {
            "bufferView" : 7,
            "componentType" : 5126,
            "count" : 4845,
            "type" : "VEC2"
        },
        {
            "bufferView" : 8,
            "componentType" : 5123,
            "count" : 11688,
            "type" : "SCALAR"
        },
        {
            "bufferView" : 10,
            "componentType" : 5126,
            "count" : 9820,
            "max" : [
                537151.3125,
                583433,
                -6.19805908203125
            ],
            "min" : [
                -467263.65625,
                -510741.46875,
                -41007.2109375
            ],
            "type" : "VEC3"
        },
        {
            "bufferView" : 11,
            "componentType" : 5126,
            "count" : 9820,
            "type" : "VEC3"
        },
        {
            "bufferView" : 12,
            "componentType" : 5126,
            "count" : 9820,
            "type" : "VEC2"
        },
        {
            "bufferView" : 13,
            "componentType" : 5123,
            "count" : 10608,
            "type" : "SCALAR"
        }
    ],
    "bufferViews" : [
        {
            "buffer" : 0,
            "byteLength" : 117840,
            "byteOffset" : 0
        },
        {
            "buffer" : 0,
            "byteLength" : 117840,
            "byteOffset" : 117840
        },
        {
            "buffer" : 0,
            "byteLength" : 78560,
            "byteOffset" : 235680
        },
        {
            "buffer" : 0,
            "byteLength" : 21216,
            "byteOffset" : 314240
        },
        {
            "buffer" : 0,
            "byteLength" : 208647,
            "byteOffset" : 335456
        },
        {
            "buffer" : 0,
            "byteLength" : 58140,
            "byteOffset" : 544104
        },
        {
            "buffer" : 0,
            "byteLength" : 58140,
            "byteOffset" : 602244
        },
        {
            "buffer" : 0,
            "byteLength" : 38760,
            "byteOffset" : 660384
        },
        {
            "buffer" : 0,
            "byteLength" : 23376,
            "byteOffset" : 699144
        },
        {
            "buffer" : 0,
            "byteLength" : 6628,
            "byteOffset" : 722520
        },
        {
            "buffer" : 0,
            "byteLength" : 117840,
            "byteOffset" : 729148
        },
        {
            "buffer" : 0,
            "byteLength" : 117840,
            "byteOffset" : 846988
        },
        {
            "buffer" : 0,
            "byteLength" : 78560,
            "byteOffset" : 964828
        },
        {
            "buffer" : 0,
            "byteLength" : 21216,
            "byteOffset" : 1043388
        }
    ],
    "samplers" : [
        {
            "magFilter" : 9729,
            "minFilter" : 9987
        }
    ],
    "buffers" : [
        {
            "byteLength" : 1064604,
            "uri" : "data:application/octet-stream;base64,"
        }
    ]
}
