{
    "asset" : {
        "generator" : "Khronos glTF Blender I/O v1.5.17",
        "version" : "2.0"
    },
    "scene" : 0,
    "scenes" : [
        {
            "name" : "Scene",
            "nodes" : [
                0
            ]
        }
    ],
    "nodes" : [
        {
            "mesh" : 0,
            "name" : "Wheel",
            "scale" : [
                22.419464111328125,
                13.000398635864258,
                13.000398635864258
            ],
            "translation" : [
                0.9470663666725159,
                -0.6001760959625244,
                1.7284799814224243
            ]
        }
    ],
    "materials" : [
        {
            "doubleSided" : true,
            "name" : "Black Chrome",
            "pbrMetallicRoughness" : {}
        },
        {
            "doubleSided" : true,
            "name" : "Rubber",
            "pbrMetallicRoughness" : {
                "baseColorFactor" : [
                    0,
                    0,
                    0,
                    1
                ],
                "metallicFactor" : 0,
                "roughnessFactor" : 0.800000011920929
            }
        }
    ],
    "meshes" : [
        {
            "name" : "Cube.038",
            "primitives" : [
                {
                    "attributes" : {
                        "POSITION" : 0,
                        "NORMAL" : 1,
                        "TEXCOORD_0" : 2
                    },
                    "indices" : 3,
                    "material" : 0
                },
                {
                    "attributes" : {
                        "POSITION" : 4,
                        "NORMAL" : 5,
                        "TEXCOORD_0" : 6
                    },
                    "indices" : 7,
                    "material" : 1
                }
            ]
        }
    ],
    "accessors" : [
        {
            "bufferView" : 0,
            "componentType" : 5126,
            "count" : 1331,
            "max" : [
                0.12520478665828705,
                0.31420278549194336,
                0.31205880641937256
            ],
            "min" : [
                -0.164886474609375,
                -0.3113836348056793,
                -0.3135276436805725
            ],
            "type" : "VEC3"
        },
        {
            "bufferView" : 1,
            "componentType" : 5126,
            "count" : 1331,
            "type" : "VEC3"
        },
        {
            "bufferView" : 2,
            "componentType" : 5126,
            "count" : 1331,
            "type" : "VEC2"
        },
        {
            "bufferView" : 3,
            "componentType" : 5123,
            "count" : 6432,
            "type" : "SCALAR"
        },
        {
            "bufferView" : 4,
            "componentType" : 5126,
            "count" : 3581,
            "max" : [
                0.11100514233112335,
                0.4545638859272003,
                0.4557868242263794
            ],
            "min" : [
                -0.1552216112613678,
                -0.4555242657661438,
                -0.4543023109436035
            ],
            "type" : "VEC3"
        },
        {
            "bufferView" : 5,
            "componentType" : 5126,
            "count" : 3581,
            "type" : "VEC3"
        },
        {
            "bufferView" : 6,
            "componentType" : 5126,
            "count" : 3581,
            "type" : "VEC2"
        },
        {
            "bufferView" : 7,
            "componentType" : 5123,
            "count" : 5376,
            "type" : "SCALAR"
        }
    ],
    "bufferViews" : [
        {
            "buffer" : 0,
            "byteLength" : 15972,
            "byteOffset" : 0
        },
        {
            "buffer" : 0,
            "byteLength" : 15972,
            "byteOffset" : 15972
        },
        {
            "buffer" : 0,
            "byteLength" : 10648,
            "byteOffset" : 31944
        },
        {
            "buffer" : 0,
            "byteLength" : 12864,
            "byteOffset" : 42592
        },
        {
            "buffer" : 0,
            "byteLength" : 42972,
            "byteOffset" : 55456
        },
        {
            "buffer" : 0,
            "byteLength" : 42972,
            "byteOffset" : 98428
        },
        {
            "buffer" : 0,
            "byteLength" : 28648,
            "byteOffset" : 141400
        },
        {
            "buffer" : 0,
            "byteLength" : 10752,
            "byteOffset" : 170048
        }
    ],
    "buffers" : [
        {
            "byteLength" : 180800,
            "uri" : "data:application/octet-stream;base64,"
        }
    ]
}
